<svg width="20" height="26" viewBox="0 0 20 26" fill="none" xmlns="http://www.w3.org/2000/svg">
<g clip-path="url(#clip0_9_119)">
<path d="M11.1003 0.0437488C1.5213 1.03265 -4.96112 21.4472 4.95984 25.432C16.0165 29.8748 25.6527 6.97282 16.0905 1.155C14.5983 0.246918 12.8437 -0.13697 11.1003 0.0437488Z" fill="white"/>
<path d="M11.1004 0.044161C12.8437 -0.135436 14.5983 0.24733 16.0906 1.15542C25.6528 6.97435 16.0166 29.8752 4.95878 25.4335C-4.96106 21.4476 1.52136 1.03307 11.1004 0.044161ZM6.75148 22.5162C6.71672 21.7742 6.75148 21.0154 6.75148 20.2712C6.75148 19.527 7.62597 17.8332 8.09909 17.2428C9.55545 15.4255 11.6385 15.0551 12.8527 12.91C14.0366 10.8177 14.1454 8.05642 13.6263 5.75534C13.4514 4.98083 13.2081 4.00764 12.5825 3.49017C12.6005 5.68574 12.3639 8.15857 11.4804 10.1891C10.5959 12.2208 8.75159 13.2153 7.49031 14.9496C5.81645 17.2507 5.13592 20.1197 6.69766 22.6835C7.14276 22.9719 6.75484 22.5678 6.75148 22.5173V22.5162Z" fill="black"/>
<path d="M6.75145 22.5158C6.7537 22.5675 7.14161 22.9704 6.69764 22.682C5.13589 20.1182 5.81642 17.2492 7.49028 14.9481C8.75157 13.2138 10.5958 12.2204 11.4804 10.1876C12.3639 8.15706 12.6004 5.68424 12.5825 3.48867C13.2081 4.00613 13.4514 4.97932 13.6263 5.75383C14.1454 8.0538 14.0366 10.8162 12.8527 12.9085C11.6385 15.0536 9.55542 15.424 8.09906 17.2413C7.62594 17.8317 6.75145 19.548 6.75145 20.2697C6.75145 20.9915 6.7167 21.7727 6.75145 22.5147V22.5158Z" fill="white"/>
</g>
<defs>
<clipPath id="clip0_9_119">
<rect width="20" height="26" fill="white"/>
</clipPath>
</defs>
</svg>
