<svg width="49" height="30" viewBox="0 0 49 30" fill="none" xmlns="http://www.w3.org/2000/svg">
<path d="M7.92935 0.0105626C7.76408 0.0347168 7.59969 0.146989 7.4633 0.238685L0.0461093 12.9764C-0.0516315 13.3016 -0.000983989 13.6675 0.265582 13.8938C0.509045 14.1005 2.72287 15.2822 3.04275 15.382C3.45193 15.5095 3.72161 15.4285 4.00505 15.1096L11.38 2.38751C11.4502 2.00552 11.3587 1.74787 11.0673 1.51304C10.7047 1.22095 8.94807 0.301754 8.48114 0.12194C8.27011 0.0405316 8.17459 -0.0261159 7.92935 0.0101153V0.0105626ZM37.8078 2.15983C37.5057 2.5378 37.4986 2.89206 37.7585 3.29955L45.0024 15.7492C45.2988 16.0073 45.5804 16.0704 45.9527 15.9469C46.325 15.8235 48.4749 14.6708 48.7152 14.4445C49.0031 14.1738 49.0893 13.8129 48.8969 13.4492L41.5557 0.865351C41.3483 0.618442 40.9871 0.508406 40.6738 0.616653L37.8078 2.15983ZM37.0819 4.47326C36.9002 4.31805 36.0769 4.63787 35.7979 4.68081C33.9764 4.95903 32.3632 4.12795 30.6114 3.83721C27.8249 3.37425 24.3511 3.44045 21.5509 3.82692C18.8972 4.19281 17.5812 6.20163 16.1445 8.2838C15.5234 9.18377 14.1106 11.2628 15.7824 11.8779C17.4009 12.4732 19.5601 10.8312 20.5668 9.66775C20.8111 9.38505 21.2887 8.56292 21.5193 8.42649C22.1529 8.05166 23.603 7.93133 24.3462 7.70903C29.9228 10.6344 35.4189 13.8317 40.3588 17.7661C40.4761 17.8614 40.6094 17.7518 40.7178 17.6816C41.3718 17.2562 42.5767 16.2802 43.1636 15.7443C43.2595 15.6566 43.4501 15.5211 43.4159 15.3838L37.0819 4.47371V4.47326ZM29.8948 27.8603L25.2903 25.694C24.6017 25.2257 25.062 24.4317 25.8292 24.6308C27.4166 25.2932 29.0369 26.4361 30.6185 27.0453C31.3352 27.3213 32.3956 27.4009 33.0438 26.9192C33.6298 26.484 33.9608 25.448 33.2642 24.9605C31.5564 23.7657 29.2582 22.9118 27.4984 21.7336C26.8973 21.2765 27.2354 20.4333 27.9964 20.7116C29.9375 21.6876 31.7959 22.9351 33.724 23.9187C34.5566 24.3432 35.0373 24.5105 35.9796 24.2014C37.1667 23.8118 37.4431 22.4041 36.4501 21.6375L29.5923 17.6574C29.0809 17.0357 29.6602 16.4645 30.3546 16.7158L38.0362 21.1401C39.7768 21.9018 41.442 20.4924 40.202 18.7859C36.73 16.0216 32.995 13.6957 29.1435 11.5088C27.7472 10.7162 25.9998 9.6257 24.5648 8.99725C24.4498 8.9467 24.2938 8.88005 24.1712 8.86798C23.9184 8.84248 22.3497 9.24863 22.1489 9.40787C21.9196 9.58947 21.506 10.2582 21.2563 10.5355C19.8297 12.1203 16.6723 14.1184 14.6704 12.475C12.4885 10.6836 15.359 7.49924 16.539 5.96009L16.5621 5.70826C16.5105 5.5526 16.2182 5.62864 16.08 5.61343C14.6361 5.45419 13.3335 4.92414 12.0971 4.17581L11.6981 4.30016L5.44806 15.0577C5.28635 15.3292 5.35432 15.5381 5.52759 15.7743L7.22384 17.5975C8.36207 16.1156 10.1769 16.1791 11.4804 17.4235C11.6448 17.58 12.1833 18.3538 12.2841 18.3534C12.4054 18.3525 12.8359 17.8287 12.9754 17.7155C14.593 16.4076 17.3 17.3483 17.5386 19.4873C17.5675 19.7458 17.5106 20.0097 17.5706 20.2656C18.0811 20.3475 18.5453 20.3703 19.022 20.5993C20.2465 21.1875 20.8027 22.3187 20.6588 23.6695C21.143 23.7657 21.5766 23.7702 22.0333 23.9938C23.4866 24.7064 24.3574 26.2115 23.4586 27.7489C23.3346 27.9614 22.8228 28.406 23.1578 28.6516C23.3337 28.7808 24.3534 29.0183 24.6297 29.0801C25.9874 29.3833 28.2088 29.6973 29.387 28.796C29.6007 28.6328 30.1609 28.1367 29.8944 27.8603H29.8948ZM9.13689 17.5554C8.89032 17.5872 8.58421 17.7451 8.40383 17.9173C8.17325 18.1365 7.25227 19.3357 7.10122 19.6166C6.56364 20.6167 7.42243 21.3655 8.24878 21.7775C8.72682 22.0159 9.23419 22.0172 9.66958 21.6813C9.89349 21.5086 11.0948 19.9842 11.1917 19.74C11.4165 19.1755 11.2401 18.7108 10.8189 18.3212C10.3929 17.9276 9.73311 17.4785 9.13689 17.5554ZM14.4846 18.1924C14.1257 18.2411 13.7458 18.4388 13.4908 18.6969L10.192 23.0183C9.51852 24.7645 11.552 26.0031 12.9168 24.8929L16.1778 20.7071C16.9753 19.4524 15.8943 18 14.4846 18.1919V18.1924ZM17.4164 21.4331C17.2689 21.4581 16.985 21.5954 16.8602 21.6835C16.443 21.977 14.3496 24.701 14.015 25.2454C13.0199 26.8659 15.1337 28.4364 16.4826 27.4403C16.8997 27.1321 18.9545 24.4528 19.2966 23.9048C20.1332 22.5665 18.831 21.192 17.4164 21.4331ZM20.6961 24.7918C20.2616 24.8442 19.9874 25.0463 19.7022 25.3554C19.3966 25.6869 17.8962 27.6004 17.8158 27.914C17.4591 29.3015 19.3686 30.5405 20.4504 29.7559C20.8662 29.4545 21.7703 28.1998 22.1124 27.7239C22.4105 27.3097 22.7628 26.9389 22.7175 26.377C22.6513 25.5554 21.4864 24.6965 20.6961 24.7918Z" fill="white"/>
</svg>
