<svg width="44" height="44" viewBox="0 0 44 44" fill="none" xmlns="http://www.w3.org/2000/svg">
<path d="M35.5841 9.80733C35.584 9.78488 35.584 9.76795 35.584 9.75677L35.5686 9.61811C35.4659 9.00187 34.8805 8.58076 34.2642 8.68347C31.2703 9.15593 29.704 8.10831 27.7269 6.78338L27.725 6.7821C25.7791 5.47803 23.5814 4.00513 19.7978 4H19.7876C16.0238 4 13.8242 5.46261 11.8859 6.75153L11.8534 6.77311L11.8376 6.78372C9.86792 8.10365 8.30721 9.14954 5.35713 8.68347C5.0336 8.60131 4.6844 8.67834 4.42249 8.88375C4.16059 9.0943 4.00139 9.4127 4.00139 9.75163C3.99626 10.2446 3.96545 21.8814 4.83846 26.9141C5.97851 33.5336 18.781 39.7217 19.3254 39.9836C19.6232 40.1223 19.9673 40.1223 20.26 39.9836C20.8044 39.7269 33.6223 33.5387 34.7624 26.9192C35.5955 22.0007 35.585 10.7745 35.5841 9.80733Z" fill="white"/>
<path d="M25.9746 26.9111C26.7907 27.4951 27.6779 27.9593 28.6362 28.3037L27.4121 30.6509C26.9105 30.5011 26.4201 30.2952 25.9409 30.0332C25.8361 29.9808 25.0986 29.4941 23.7285 28.5732C22.6504 29.0449 21.4562 29.2808 20.146 29.2808C17.6154 29.2808 15.6313 28.5358 14.1938 27.0459C12.7638 25.556 12.0488 23.4634 12.0488 20.7681C12.0488 18.0802 12.7676 15.9914 14.2051 14.5015C15.6426 13.0041 17.5929 12.2554 20.0562 12.2554C22.4969 12.2554 24.4323 13.0041 25.8623 14.5015C27.2923 15.9914 28.0073 18.0802 28.0073 20.7681C28.0073 22.1906 27.8089 23.4409 27.4121 24.519C27.1126 25.3426 26.6335 26.14 25.9746 26.9111ZM23.3018 25.0356C23.7285 24.534 24.0467 23.9276 24.2563 23.2163C24.4735 22.505 24.582 21.689 24.582 20.7681C24.582 18.8664 24.1628 17.4476 23.3242 16.5117C22.4857 15.5684 21.3888 15.0967 20.0337 15.0967C18.6785 15.0967 17.578 15.5684 16.7319 16.5117C15.8934 17.4551 15.4741 18.8739 15.4741 20.7681C15.4741 22.6922 15.8934 24.1335 16.7319 25.0918C17.578 26.0426 18.6449 26.5181 19.9326 26.5181C20.4118 26.5181 20.8647 26.4395 21.2915 26.2822C20.6177 25.8405 19.9326 25.4961 19.2363 25.249L20.1685 23.3511C21.2616 23.7254 22.306 24.2869 23.3018 25.0356Z" fill="#0B2739"/>
</svg>
