<svg width="80" height="84" viewBox="0 0 80 84" fill="none" xmlns="http://www.w3.org/2000/svg">
<path d="M71.9709 14.1963C71.9709 14.1451 71.9708 14.1065 71.9708 14.081L71.9357 13.7651C71.7017 12.3608 70.3676 11.4013 68.9634 11.6353C62.1411 12.7119 58.572 10.3247 54.0667 7.30554L54.0623 7.30263C49.6283 4.33103 44.6203 0.974726 35.9987 0.963028H35.9753C27.3988 0.963028 22.3866 4.29589 17.9696 7.23296L17.8956 7.28214L17.8595 7.30632C13.3713 10.3141 9.81488 12.6973 3.09251 11.6353C2.35529 11.4481 1.55954 11.6236 0.96274 12.0917C0.365936 12.5715 0.00317121 13.297 0.00317121 14.0693C-0.00853083 15.1927 -0.0787408 41.7096 1.91061 53.1776C4.50846 68.2616 33.6817 82.3625 34.9221 82.9593C35.6008 83.2753 36.3849 83.2753 37.0519 82.9593C38.2923 82.3742 67.5006 68.2733 70.0985 53.1893C71.9969 41.9815 71.973 16.4001 71.9709 14.1963Z" fill="#0B2739"/>
<path d="M49.2234 52.8681C50.9946 54.138 52.9201 55.1473 55 55.8962L52.3433 61C51.2546 60.6744 50.1903 60.2267 49.1503 59.6569C48.9228 59.5429 47.3223 58.4847 44.3487 56.4823C42.0088 57.5079 39.4171 58.0208 36.5735 58.0208C31.0812 58.0208 26.7752 56.4009 23.6554 53.1612C20.5518 49.9214 19 45.3712 19 39.5104C19 33.6659 20.5599 29.1237 23.6798 25.884C26.7996 22.628 31.0325 21 36.3785 21C41.6757 21 45.8761 22.628 48.9797 25.884C52.0833 29.1237 53.6351 33.6659 53.6351 39.5104C53.6351 42.6036 53.2045 45.3223 52.3433 47.6667C51.6933 49.4575 50.6534 51.1913 49.2234 52.8681ZM43.4225 48.79C44.3487 47.6992 45.0393 46.3805 45.4942 44.8339C45.9655 43.2873 46.2011 41.5128 46.2011 39.5104C46.2011 35.3753 45.2911 32.2902 43.4712 30.2552C41.6513 28.2039 39.2708 27.1783 36.3297 27.1783C33.3886 27.1783 31 28.2039 29.1638 30.2552C27.3439 32.3065 26.434 35.3915 26.434 39.5104C26.434 43.6943 27.3439 46.8282 29.1638 48.9121C31 50.9797 33.3155 52.0134 36.1104 52.0134C37.1503 52.0134 38.1334 51.8425 39.0596 51.5006C37.5972 50.5401 36.1104 49.7912 34.5992 49.254L36.6222 45.127C38.9946 45.941 41.2613 47.162 43.4225 48.79Z" fill="white"/>
</svg>
